HIERARCHY
ROOT Hips
{
	OFFSET 0.000000 0.000000 0.000000
	CHANNELS 6 Xposition Yposition Zposition Zrotation Yrotation Xrotation 
	JOINT LHipJoint
	{
		OFFSET 0.000000 0.000000 0.000000
		CHANNELS 3 Zrotation Yrotation Xrotation
		JOINT LeftUpLeg
		{
			OFFSET 1.363060 -1.794630 0.839290
			CHANNELS 3 Zrotation Yrotation Xrotation
			JOINT LeftLeg
			{
				OFFSET 2.448110 -6.726130 0.000000
				CHANNELS 3 Zrotation Yrotation Xrotation
				JOINT LeftFoot
				{
					OFFSET 2.562200 -7.039590 0.000000
					CHANNELS 3 Zrotation Yrotation Xrotation
					JOINT LeftToeBase
					{
						OFFSET 0.157640 -0.433110 2.322550
						CHANNELS 3 Zrotation Yrotation Xrotation
						End Site
						{
							OFFSET 0.000000 0.000000 0.000000
						}
					}
				}
			}
		}
	}
	JOINT RHipJoint
	{
		OFFSET 0.000000 0.000000 0.000000
		CHANNELS 3 Zrotation Yrotation Xrotation
		JOINT RightUpLeg
		{
			OFFSET -1.305520 -1.794630 0.839290
			CHANNELS 3 Zrotation Yrotation Xrotation
			JOINT RightLeg
			{
				OFFSET -2.542530 -6.985550 0.000000
				CHANNELS 3 Zrotation Yrotation Xrotation
				JOINT RightFoot
				{
					OFFSET -2.568260 -7.056230 0.000000
					CHANNELS 3 Zrotation Yrotation Xrotation
					JOINT RightToeBase
					{
						OFFSET -0.164730 -0.452590 2.363150
						CHANNELS 3 Zrotation Yrotation Xrotation
						End Site
						{
							OFFSET 0.000000 0.000000 0.000000
						}
					}
				}
			}
		}
	}
	JOINT LowerBack
	{
		OFFSET 0.000000 0.000000 0.000000
		CHANNELS 3 Zrotation Yrotation Xrotation
		JOINT Spine
		{
			OFFSET 0.028270 2.035590 -0.193380
			CHANNELS 3 Zrotation Yrotation Xrotation
			JOINT Spine1
			{
				OFFSET 0.056720 2.048850 -0.042750
				CHANNELS 3 Zrotation Yrotation Xrotation
				JOINT Neck
				{
					OFFSET 0.000000 0.000000 0.000000
					CHANNELS 3 Zrotation Yrotation Xrotation
					JOINT Neck1
					{
						OFFSET -0.054170 1.746240 0.172020
						CHANNELS 3 Zrotation Yrotation Xrotation
						JOINT Head
						{
							OFFSET 0.104070 1.761360 -0.123970
							CHANNELS 3 Zrotation Yrotation Xrotation
							End Site
							{
								OFFSET 0.000000 0.000000 0.000000
							}
						}
					}
				}
				JOINT LeftShoulder
				{
					OFFSET 0.000000 0.000000 0.000000
					CHANNELS 3 Zrotation Yrotation Xrotation
					JOINT LeftArm
					{
						OFFSET 3.362410 1.200890 -0.311210
						CHANNELS 3 Zrotation Yrotation Xrotation
						JOINT LeftForeArm
						{
							OFFSET 4.983000 -0.000000 -0.000000
							CHANNELS 3 Zrotation Yrotation Xrotation
							JOINT LeftHand
							{
								OFFSET 3.483560 -0.000000 -0.000000
								CHANNELS 3 Zrotation Yrotation Xrotation
								JOINT LeftFingerBase
								{
									OFFSET 0.000000 0.000000 0.000000
									CHANNELS 3 Zrotation Yrotation Xrotation
									JOINT LeftHandIndex1
									{
										OFFSET 0.715260 -0.000000 -0.000000
										CHANNELS 3 Zrotation Yrotation Xrotation
										End Site
										{
											OFFSET 0.000000 0.000000 0.000000
										}
									}
								}
								JOINT LThumb
								{
									OFFSET 0.000000 0.000000 0.000000
									CHANNELS 3 Zrotation Yrotation Xrotation
									End Site
									{
										OFFSET 0.000000 0.000000 0.000000
									}
								}
							}
						}
					}
				}
				JOINT RightShoulder
				{
					OFFSET 0.000000 0.000000 0.000000
					CHANNELS 3 Zrotation Yrotation Xrotation
					JOINT RightArm
					{
						OFFSET -3.136600 1.374050 -0.404650
						CHANNELS 3 Zrotation Yrotation Xrotation
						JOINT RightForeArm
						{
							OFFSET -5.241900 -0.000000 -0.000000
							CHANNELS 3 Zrotation Yrotation Xrotation
							JOINT RightHand
							{
								OFFSET -3.444170 -0.000000 -0.000000
								CHANNELS 3 Zrotation Yrotation Xrotation
								JOINT RightFingerBase
								{
									OFFSET 0.000000 0.000000 0.000000
									CHANNELS 3 Zrotation Yrotation Xrotation
									JOINT RightHandIndex1
									{
										OFFSET -0.622530 -0.000000 -0.000000
										CHANNELS 3 Zrotation Yrotation Xrotation
										End Site
										{
											OFFSET 0.000000 0.000000 0.000000
										}
									}
								}
								JOINT RThumb
								{
									OFFSET 0.000000 0.000000 0.000000
									CHANNELS 3 Zrotation Yrotation Xrotation
									End Site
									{
										OFFSET 0.000000 0.000000 0.000000
									}
								}
							}
						}
					}
				}
			}
		}
	}
}
MOTION
Frames: 7
Frame Time: 0.008333
-21.082001 17.593832 -0.254505 31.990852 82.075280 58.007694 -9.080176 -0.743951 4.497585 -8.200805 -6.930426 -62.513284 1.961305 3.177636 73.542548 2.497170 13.268384 1.553418 2.357600 0.000001 -32.595599 12.831991 -4.829262 2.985124 -1.438103 -7.686495 -3.507734 1.398369 -0.191908 -0.456298 0.322150 8.226140 25.713589 4.243700 0.000000 -72.037300 -7.694087 3.039248 -9.238320 -1.778218 3.524054 -4.834227 -2.598729 3.169522 0.776395 1.171784 -7.713622 -9.261103 0.280996 0.039977 -0.355114 0.000000 0.000000 0.000000 5.626790 23.808472 2.747419 -39.588536 43.291767 -16.255805 -4.070906 -6.529810 0.011614 16.504847 -0.489147 -0.068178 -0.387102 -0.027785 -0.000000 0.000000 0.000000 0.000000 0.000000 0.000000 0.000000 -9.797399 -2.645891 -3.443654 12.993388 26.785203 -64.192495 0.823391 87.998219 -0.302152 -24.881537 10.759589 -2.589220 0.215553 -0.827687 0.000000 0.000000 0.000000 0.000000 0.000000 0.000000 0.000000 
-20.837854 17.733052 -0.261804 34.108610 82.152036 59.944733 -8.857878 -0.502638 4.745561 -8.832601 -7.300771 -61.834619 1.782003 2.981779 70.841711 2.484183 13.256578 2.567670 2.615500 -0.000000 -33.781799 13.141702 -4.946019 2.835662 -2.120179 -9.494028 -2.926246 1.377219 -0.219558 -1.402265 0.214178 9.179783 28.655871 5.196400 -0.000000 -68.968500 -8.098113 3.116834 -9.441436 -1.835547 3.652116 -4.864917 -2.462547 3.294654 0.841770 0.935271 -7.834431 -9.112408 0.457599 0.052081 -0.306957 0.000000 0.000000 0.000000 5.916484 24.135838 2.736687 -39.217918 43.770474 -16.183620 -4.087737 -6.832066 0.006831 15.881241 0.233114 0.037704 -0.388842 -0.029340 -0.000000 0.000000 0.000000 0.000000 0.000000 0.000000 0.000000 -10.835340 -2.874535 -3.628541 13.026578 26.797710 -64.923496 0.960116 88.889991 -0.308869 -25.123373 10.850593 -2.638285 0.217266 -0.837990 0.000000 0.000000 0.000000 0.000000 0.000000 0.000000 0.000000 
-20.596706 17.863430 -0.271399 36.004304 82.262016 61.663530 -8.660459 -0.263665 4.979463 -9.399404 -7.595481 -61.120027 1.605335 2.797964 68.047920 2.482273 13.334261 3.539109 2.890600 -0.000000 -34.877600 13.393868 -5.039753 2.683425 -2.716516 -11.131203 -2.436463 1.355341 -0.243937 -1.819132 0.104072 9.640905 30.645438 5.776100 0.000000 -65.931400 -8.424076 3.181136 -9.611953 -1.872135 3.761474 -4.887830 -2.317829 3.402171 0.901516 0.675685 -7.946370 -8.980749 0.636877 0.064689 -0.264796 0.000000 0.000000 0.000000 6.190507 24.473056 2.743909 -39.019435 44.179429 -16.109638 -4.109861 -7.139943 0.002384 15.189807 0.866337 0.122687 -0.388872 -0.030194 -0.000000 0.000000 0.000000 0.000000 0.000000 0.000000 0.000000 -11.914659 -3.094019 -3.813994 13.113328 26.886786 -65.529391 1.094051 89.713775 -0.315190 -25.308868 10.965285 -2.687150 0.218185 -0.848871 0.000000 0.000000 0.000000 0.000000 0.000000 0.000000 0.000000 
-20.358844 17.984027 -0.283367 37.683087 82.412396 63.177383 -8.490247 -0.031107 5.191778 -9.894601 -7.810202 -60.372393 1.428626 2.626039 65.167850 2.482019 13.443965 4.459404 3.170800 0.000000 -35.820200 13.583839 -5.123445 2.546429 -3.211683 -12.461174 -1.975660 1.317477 -0.270698 -1.781129 -0.003329 9.451310 31.768302 5.847300 0.000000 -63.236400 -8.669570 3.236073 -9.757321 -1.887764 3.855246 -4.904267 -2.164911 3.494843 0.955674 0.395179 -8.049384 -8.868205 0.817723 0.077725 -0.229124 0.000000 0.000000 0.000000 6.451323 24.813349 2.768609 -38.991570 44.517457 -16.103703 -4.135835 -7.444458 -0.001595 14.459784 1.380629 0.183771 -0.387533 -0.029712 -0.000000 0.000000 0.000000 0.000000 0.000000 0.000000 0.000000 -13.026723 -3.300355 -3.996233 13.234372 27.029204 -66.013878 -178.776440 89.529504 179.678986 -25.434827 11.101862 -2.735119 0.218317 -0.860228 0.000000 0.000000 0.000000 0.000000 0.000000 0.000000 0.000000 
-20.124277 18.094067 -0.297505 39.176856 82.603355 64.521329 -8.345438 0.194098 5.376967 -10.323391 -7.948192 -59.588478 1.248398 2.464931 62.206367 2.474023 13.529405 5.314146 3.438700 -0.000000 -36.516500 13.714691 -5.204171 2.436822 -3.599848 -13.395277 -1.499935 1.251151 -0.304350 -1.348484 -0.108592 8.588151 32.137104 5.393600 0.000001 -61.052800 -8.841302 3.284439 -9.882241 -1.884413 3.935998 -4.915219 -2.005590 3.574877 1.004681 0.100801 -8.145211 -8.776606 0.998251 0.091056 -0.200375 0.000000 0.000000 0.000000 6.698152 25.152044 2.809580 -39.124417 44.785100 -16.210371 -4.163674 -7.743822 -0.005021 13.727855 1.763934 0.221757 -0.385221 -0.027557 -0.000000 0.000000 0.000000 0.000000 0.000000 0.000000 0.000000 -14.153692 -3.491690 -4.172242 13.368377 27.208077 -66.381643 -178.652699 88.839146 179.673708 -25.505598 11.257038 -2.781489 0.217732 -0.871848 0.000000 0.000000 0.000000 0.000000 0.000000 0.000000 0.000000 
-19.893123 18.192879 -0.313940 40.479452 82.839943 65.693135 -8.227537 0.409327 5.534349 -10.678674 -8.012707 -58.773345 1.062254 2.313262 59.173073 2.449627 13.537652 6.096678 3.675500 0.000000 -36.988300 13.787240 -5.285551 2.362865 -3.860456 -13.886434 -0.991893 1.150757 -0.346948 -0.557197 -0.215748 7.138909 31.870009 4.499800 0.000000 -59.400500 -8.938274 3.329496 -9.993981 -1.862726 4.006439 -4.922100 -1.841945 3.644744 1.049525 -0.200269 -8.229259 -8.705984 1.176032 0.104478 -0.178424 0.000000 0.000000 0.000000 6.928729 25.486894 2.865409 -39.407002 44.982946 -16.485947 -4.190676 -8.035125 -0.007874 13.031752 2.015219 0.239746 -0.382386 -0.023481 -0.000000 0.000000 0.000000 0.000000 0.000000 0.000000 0.000000 -15.277035 -3.660484 -4.339425 13.493466 27.399768 -66.637870 -178.536234 88.212536 179.668989 -25.532393 11.426408 -2.826458 0.216630 -0.883441 0.000000 0.000000 0.000000 0.000000 0.000000 0.000000 0.000000 
-19.665055 18.279833 -0.332167 41.664072 83.108680 66.761131 -8.127720 0.619704 5.669702 -10.982989 -8.026363 -57.920823 0.866578 2.168192 56.070943 2.403002 13.436369 6.798757 3.866101 0.000000 -37.249200 13.818552 -5.358301 2.315805 -4.019270 -14.013527 -0.495255 1.020425 -0.401470 0.652820 -0.323633 5.370707 31.026335 3.373001 0.000000 -58.076800 -8.982758 3.371829 -10.092535 -1.828617 4.068239 -4.925373 -1.677639 3.705916 1.091442 -0.494535 -8.298959 -8.656532 1.348296 0.117779 -0.163239 0.000000 0.000000 0.000000 7.140677 25.818344 2.934232 -39.820520 45.113040 -16.950315 -4.213985 -8.323572 -0.010190 12.406517 2.150411 0.242939 -0.379374 -0.017596 -0.000000 0.000000 0.000000 0.000000 0.000000 0.000000 0.000000 -16.369428 -3.802572 -4.496007 13.590890 27.590330 -66.791925 -178.427264 87.645852 179.664789 -25.531155 11.605535 -2.870329 0.215182 -0.894654 0.000000 0.000000 0.000000 0.000000 0.000000 0.000000 0.000000 
